<svg xmlns="http://www.w3.org/2000/svg" xmlns:xlink="http://www.w3.org/1999/xlink" viewBox="0 0 2228.92 1799.01">
  <defs>
    <style>
      .cls-1, .cls-11, .cls-12, .cls-13, .cls-14, .cls-17, .cls-18, .cls-4, .cls-7, .cls-8, .cls-9 {
        fill: none;
      }

      .cls-2 {
        fill: #0f1027;
      }

      .cls-3 {
        clip-path: url(#clip-path);
      }

      .cls-12, .cls-13, .cls-18, .cls-4, .cls-8 {
        stroke: #8f9294;
      }

      .cls-10, .cls-11, .cls-12, .cls-17, .cls-18, .cls-4, .cls-7, .cls-8, .cls-9 {
        stroke-miterlimit: 10;
      }

      .cls-4, .cls-7 {
        stroke-width: 1.08px;
      }

      .cls-5 {
        fill: #fdfdfd;
      }

      .cls-6 {
        fill: #ff2c2c;
      }

      .cls-11, .cls-7 {
        stroke: #ff2c2c;
      }

      .cls-8 {
        stroke-width: 2px;
      }

      .cls-10, .cls-9 {
        stroke: #d8d9da;
      }

      .cls-9 {
        stroke-width: 0.78px;
      }

      .cls-10 {
        fill: #606060;
      }

      .cls-12 {
        stroke-width: 0.39px;
      }

      .cls-13, .cls-14 {
        stroke-linecap: round;
        stroke-linejoin: round;
      }

      .cls-14 {
        stroke: #575758;
      }

      .cls-15 {
        fill: #8f9294;
      }

      .cls-16 {
        clip-path: url(#clip-path-2);
      }

      .cls-17 {
        stroke: #606060;
        stroke-width: 0.65px;
      }
    </style>
    <clipPath id="clip-path" transform="translate(617.9 523.37)">
      <rect class="cls-1" x="-300.71" y="-248.35" width="1733.65" height="1144.94"/>
    </clipPath>
    <clipPath id="clip-path-2" transform="translate(617.9 523.37)">
      <ellipse class="cls-1" cx="912.46" cy="196.18" rx="127.36" ry="126.17"/>
    </clipPath>
  </defs>
  <g id="BACKGROUND">
    <rect class="cls-2" x="317.19" y="275.02" width="1733.65" height="1144.94"/>
  </g>
  <g id="OBJECTS">
    <g class="cls-3">
      <g>
        <g>
          <path class="cls-4" d="M-86.74-420.55-406.29-104a268.6,268.6,0,0,0,5.74,26.69L-59.8-414.86Q-73-418.34-86.74-420.55Z" transform="translate(617.9 523.37)"/>
          <path class="cls-4" d="M-59.8-414.86-400.55-77.3q3.36,12.54,7.85,24.6L-35-407.08Q-47.13-411.53-59.8-414.86Z" transform="translate(617.9 523.37)"/>
          <path class="cls-4" d="M47.61-359.39-344.56,29.11Q-337.1,37.89-329,46l393.67-390Q56.49-352,47.61-359.39Z" transform="translate(617.9 523.37)"/>
          <path class="cls-4" d="M29.16-373.49l-388,384.32q6.75,9.44,14.23,18.28L47.61-359.39C41.68-364.35,35.51-369,29.16-373.49Z" transform="translate(617.9 523.37)"/>
          <path class="cls-4" d="M-12-397.47-383-29.94c3.48,7.22,7.29,14.25,11.37,21.12l381-377.39C2.4-390.25-4.7-394-12-397.47Z" transform="translate(617.9 523.37)"/>
          <path class="cls-4" d="M9.32-386.21-371.63-8.82q6,10.11,12.84,19.65l388-384.32Q19.53-380.25,9.32-386.21Z" transform="translate(617.9 523.37)"/>
          <path class="cls-4" d="M-35-407.08-392.7-52.7q4.35,11.63,9.7,22.76L-12-397.47Q-23.22-402.76-35-407.08Z" transform="translate(617.9 523.37)"/>
          <path class="cls-4" d="M-390.79-248.86-233-405.19A277.91,277.91,0,0,0-390.79-248.86Z" transform="translate(617.9 523.37)"/>
          <path class="cls-4" d="M-233-405.19-390.79-248.86a272,272,0,0,0-13.67,45.92l217.83-215.79A278.08,278.08,0,0,0-233-405.19Z" transform="translate(617.9 523.37)"/>
          <path class="cls-4" d="M-116.23-423.72-409.49-133.2a272.33,272.33,0,0,0,3.2,29.21L-86.74-420.55A283.16,283.16,0,0,0-116.23-423.72Z" transform="translate(617.9 523.37)"/>
          <path class="cls-4" d="M-131.55-424.15c-5.89,0-11.73.24-17.53.6L-409.33-165.74c-.36,5.75-.6,11.53-.6,17.36,0,5.1.16,10.16.44,15.18l293.26-290.52C-121.3-424-126.4-424.15-131.55-424.15Z" transform="translate(617.9 523.37)"/>
          <path class="cls-4" d="M-186.63-418.73-404.46-202.94a274.14,274.14,0,0,0-4.87,37.2l260.25-257.81A279.25,279.25,0,0,0-186.63-418.73Z" transform="translate(617.9 523.37)"/>
          <path class="cls-4" d="M142.85-194.72-178.33,123.45A282.12,282.12,0,0,0-149,126.81L146.24-165.7A277,277,0,0,0,142.85-194.72Z" transform="translate(617.9 523.37)"/>
          <path class="cls-4" d="M146.84-148.38c0-5.82-.25-11.59-.6-17.32L-149,126.81c5.79.35,11.61.59,17.49.59,5,0,10-.15,15-.41l263-260.5C146.69-138.43,146.84-143.39,146.84-148.38Z" transform="translate(617.9 523.37)"/>
          <path class="cls-4" d="M146.42-133.51l-263,260.5a279.64,279.64,0,0,0,37.23-4.51L141.87-96.63A272.84,272.84,0,0,0,146.42-133.51Z" transform="translate(617.9 523.37)"/>
          <path class="cls-4" d="M141.87-96.63-79.31,122.48A277.14,277.14,0,0,0-34,109.94L129.21-51.71A270.56,270.56,0,0,0,141.87-96.63Z" transform="translate(617.9 523.37)"/>
          <path class="cls-4" d="M129.21-51.71-34,109.94C41.27,82,101,22.82,129.21-51.71Z" transform="translate(617.9 523.37)"/>
          <path class="cls-4" d="M136.94-221.25l-342,338.85q13.14,3.56,26.78,5.85L142.85-194.72A271.08,271.08,0,0,0,136.94-221.25Z" transform="translate(617.9 523.37)"/>
          <path class="cls-4" d="M94.72-308.93-293.62,75.78c6.38,4.54,12.95,8.84,19.72,12.84l381.59-378Q101.63-299.46,94.72-308.93Z" transform="translate(617.9 523.37)"/>
          <path class="cls-4" d="M80.38-327.1-312,61.57q8.86,7.47,18.34,14.21L94.72-308.93Q87.93-318.32,80.38-327.1Z" transform="translate(617.9 523.37)"/>
          <path class="cls-4" d="M129-245.7-229.8,109.68q12.09,4.51,24.69,7.92L136.94-221.25Q133.51-233.71,129-245.7Z" transform="translate(617.9 523.37)"/>
          <path class="cls-4" d="M64.7-343.94-329,46c5.44,5.42,11.14,10.57,17,15.53L80.38-327.1C75.38-332.92,70.17-338.56,64.7-343.94Z" transform="translate(617.9 523.37)"/>
          <path class="cls-4" d="M119.16-268.38-252.69,100c7.45,3.57,15.1,6.79,22.89,9.7L129-245.7C126-253.43,122.76-261,119.16-268.38Z" transform="translate(617.9 523.37)"/>
          <path class="cls-4" d="M107.69-289.39l-381.59,378c6.89,4.07,13.95,7.88,21.21,11.36L119.16-268.38C115.64-275.57,111.79-282.57,107.69-289.39Z" transform="translate(617.9 523.37)"/>
        </g>
        <g>
          <polygon class="cls-5" points="528.07 572.77 514.05 558.88 493.61 579.13 473.17 558.88 459.15 572.77 479.59 593.02 459.15 613.27 473.17 627.16 493.61 606.9 514.05 627.16 528.07 613.27 507.63 593.02 528.07 572.77"/>
          <polygon class="cls-6" points="528.07 699.3 514.05 685.41 493.61 705.66 473.17 685.41 459.15 699.3 479.59 719.55 459.15 739.8 473.17 753.69 493.61 733.43 514.05 753.69 528.07 739.8 507.63 719.55 528.07 699.3"/>
          <polygon class="cls-5" points="528.07 825.83 514.05 811.94 493.61 832.19 473.17 811.94 459.15 825.83 479.59 846.08 459.15 866.33 473.17 880.22 493.61 859.97 514.05 880.22 528.07 866.33 507.63 846.08 528.07 825.83"/>
        </g>
        <path class="cls-5" d="M220.16,628.72c-180.33,0-326.52,144.82-326.52,323.46s146.19,323.46,326.52,323.46,326.51-144.82,326.51-323.46S400.49,628.72,220.16,628.72Zm0,582.26c-144.29,0-261.25-115.87-261.25-258.8s117-258.8,261.25-258.8,261.25,115.87,261.25,258.8S364.44,1211,220.16,1211Z" transform="translate(617.9 523.37)"/>
        <g>
          <g>
            <rect class="cls-4" x="824.24" y="1006.73" width="9.18" height="9.09"/>
            <rect class="cls-4" x="894.36" y="1006.73" width="9.17" height="9.09"/>
            <rect class="cls-4" x="964.48" y="1006.73" width="9.17" height="9.09"/>
            <rect class="cls-4" x="1034.6" y="1006.73" width="9.17" height="9.09"/>
            <rect class="cls-4" x="1104.72" y="1006.73" width="9.17" height="9.09"/>
            <rect class="cls-4" x="1174.84" y="1006.73" width="9.17" height="9.09"/>
          </g>
          <g>
            <rect class="cls-4" x="824.24" y="1057.37" width="9.18" height="9.09"/>
            <rect class="cls-7" x="894.36" y="1057.37" width="9.17" height="9.09"/>
            <rect class="cls-4" x="964.48" y="1057.37" width="9.17" height="9.09"/>
            <rect class="cls-4" x="1034.6" y="1057.37" width="9.17" height="9.09"/>
            <rect class="cls-4" x="1104.72" y="1057.37" width="9.17" height="9.09"/>
            <rect class="cls-4" x="1174.84" y="1057.37" width="9.17" height="9.09"/>
          </g>
          <g>
            <rect class="cls-4" x="824.24" y="1108.01" width="9.18" height="9.09"/>
            <rect class="cls-4" x="894.36" y="1108.01" width="9.17" height="9.09"/>
            <rect class="cls-4" x="964.48" y="1108.01" width="9.17" height="9.09"/>
            <rect class="cls-7" x="1034.6" y="1108.01" width="9.17" height="9.09"/>
            <rect class="cls-4" x="1104.72" y="1108.01" width="9.17" height="9.09"/>
            <rect class="cls-4" x="1174.84" y="1108.01" width="9.17" height="9.09"/>
          </g>
          <g>
            <rect class="cls-4" x="824.24" y="1158.65" width="9.18" height="9.09"/>
            <rect class="cls-4" x="894.36" y="1158.65" width="9.17" height="9.09"/>
            <rect class="cls-4" x="964.48" y="1158.65" width="9.17" height="9.09"/>
            <rect class="cls-4" x="1034.6" y="1158.65" width="9.17" height="9.09"/>
            <rect class="cls-4" x="1104.72" y="1158.65" width="9.17" height="9.09"/>
            <rect class="cls-4" x="1174.84" y="1158.65" width="9.17" height="9.09"/>
          </g>
          <g>
            <rect class="cls-4" x="824.24" y="1209.29" width="9.18" height="9.09"/>
            <rect class="cls-2" x="894.36" y="1209.29" width="9.17" height="9.09"/>
            <rect class="cls-2" x="964.48" y="1209.29" width="9.17" height="9.09"/>
            <rect class="cls-4" x="1034.6" y="1209.29" width="9.17" height="9.09"/>
            <rect class="cls-7" x="1104.72" y="1209.29" width="9.17" height="9.09"/>
            <rect class="cls-4" x="1174.84" y="1209.29" width="9.17" height="9.09"/>
          </g>
          <g>
            <rect class="cls-4" x="824.24" y="1259.92" width="9.18" height="9.09"/>
            <rect class="cls-4" x="894.36" y="1259.92" width="9.17" height="9.09"/>
            <rect class="cls-4" x="964.48" y="1259.92" width="9.17" height="9.09"/>
            <rect class="cls-2" x="1034.6" y="1259.92" width="9.17" height="9.09"/>
            <rect class="cls-4" x="1104.72" y="1259.92" width="9.17" height="9.09"/>
            <rect class="cls-4" x="1174.84" y="1259.92" width="9.17" height="9.09"/>
          </g>
          <g>
            <rect class="cls-4" x="824.24" y="1310.56" width="9.18" height="9.09"/>
            <rect class="cls-4" x="894.36" y="1310.56" width="9.17" height="9.09"/>
            <rect class="cls-4" x="964.48" y="1310.56" width="9.17" height="9.09"/>
            <rect class="cls-4" x="1034.6" y="1310.56" width="9.17" height="9.09"/>
            <rect class="cls-2" x="1104.72" y="1310.56" width="9.17" height="9.09"/>
            <rect class="cls-4" x="1174.84" y="1310.56" width="9.17" height="9.09"/>
          </g>
        </g>
        <g>
          <path class="cls-8" d="M-53.57,487.78-543.78,973.4a43.13,43.13,0,0,1-60.58,0h0a42.17,42.17,0,0,1,0-60l490.21-485.62a43.13,43.13,0,0,1,60.58,0h0A42.17,42.17,0,0,1-53.57,487.78Z" transform="translate(617.9 523.37)"/>
          <path class="cls-8" d="M-83.42,695.78l-374.17,370.66a32.9,32.9,0,0,1-46.23,0h0a32.17,32.17,0,0,1,0-45.8L-129.65,650a32.9,32.9,0,0,1,46.23,0h0A32.17,32.17,0,0,1-83.42,695.78Z" transform="translate(617.9 523.37)"/>
        </g>
        <g>
          <polygon class="cls-5" points="875.36 413.22 835.71 390.54 835.71 435.89 875.36 413.22"/>
          <polygon class="cls-5" points="941.76 413.22 902.11 390.54 902.11 435.89 941.76 413.22"/>
          <polygon class="cls-6" points="1008.17 413.22 968.52 390.54 968.52 435.89 1008.17 413.22"/>
        </g>
        <g>
          <polygon class="cls-5" points="1928.84 1168.26 1905.95 1207.54 1951.73 1207.54 1928.84 1168.26"/>
          <polygon class="cls-5" points="1928.84 1102.48 1905.95 1141.76 1951.73 1141.76 1928.84 1102.48"/>
          <polygon class="cls-5" points="1928.84 1036.7 1905.95 1075.97 1951.73 1075.97 1928.84 1036.7"/>
          <polygon class="cls-6" points="1928.84 838.17 1915.56 860.96 1942.12 860.96 1928.84 838.17"/>
        </g>
        <g>
          <line class="cls-9" x1="1758.62" y1="1299.56" x2="1727.23" y2="1330.65"/>
          <line class="cls-9" x1="1773.91" y1="1299.56" x2="1742.52" y2="1330.65"/>
          <line class="cls-9" x1="1789.2" y1="1299.56" x2="1757.81" y2="1330.65"/>
          <line class="cls-9" x1="1804.49" y1="1299.56" x2="1773.1" y2="1330.65"/>
          <line class="cls-9" x1="1819.78" y1="1299.56" x2="1788.39" y2="1330.65"/>
          <line class="cls-9" x1="1835.08" y1="1299.56" x2="1803.69" y2="1330.65"/>
          <line class="cls-9" x1="1850.37" y1="1299.56" x2="1818.98" y2="1330.65"/>
          <line class="cls-9" x1="1865.66" y1="1299.56" x2="1834.27" y2="1330.65"/>
          <line class="cls-9" x1="1880.95" y1="1299.56" x2="1849.56" y2="1330.65"/>
          <line class="cls-9" x1="1896.24" y1="1299.56" x2="1864.86" y2="1330.65"/>
          <line class="cls-9" x1="1911.54" y1="1299.56" x2="1880.15" y2="1330.65"/>
          <line class="cls-9" x1="1926.83" y1="1299.56" x2="1895.44" y2="1330.65"/>
          <line class="cls-9" x1="1942.12" y1="1299.56" x2="1910.73" y2="1330.65"/>
        </g>
        <rect class="cls-6" x="1727.23" y="1269.32" width="138.43" height="11.5"/>
        <rect class="cls-5" x="1884.41" y="1269.32" width="57.71" height="11.5"/>
        <g>
          <g>
            <path class="cls-10" d="M1249.77-160.28a4.8,4.8,0,0,1-4.83,4.78,4.81,4.81,0,0,1-4.83-4.78,4.82,4.82,0,0,1,4.83-4.79A4.81,4.81,0,0,1,1249.77-160.28Z" transform="translate(617.9 523.37)"/>
            <path class="cls-9" d="M1285.19-160.28a4.81,4.81,0,0,1-4.83,4.78,4.8,4.8,0,0,1-4.83-4.78,4.81,4.81,0,0,1,4.83-4.79A4.82,4.82,0,0,1,1285.19-160.28Z" transform="translate(617.9 523.37)"/>
            <path class="cls-9" d="M1320.6-160.28a4.8,4.8,0,0,1-4.83,4.78,4.8,4.8,0,0,1-4.83-4.78,4.81,4.81,0,0,1,4.83-4.79A4.81,4.81,0,0,1,1320.6-160.28Z" transform="translate(617.9 523.37)"/>
          </g>
          <g>
            <ellipse class="cls-9" cx="1827.43" cy="393.39" rx="4.83" ry="4.78"/>
            <path class="cls-9" d="M1249.77-130a4.8,4.8,0,0,1-4.83,4.78,4.81,4.81,0,0,1-4.83-4.78,4.81,4.81,0,0,1,4.83-4.79A4.81,4.81,0,0,1,1249.77-130Z" transform="translate(617.9 523.37)"/>
            <path class="cls-9" d="M1285.19-130a4.81,4.81,0,0,1-4.83,4.78,4.8,4.8,0,0,1-4.83-4.78,4.81,4.81,0,0,1,4.83-4.79A4.81,4.81,0,0,1,1285.19-130Z" transform="translate(617.9 523.37)"/>
            <path class="cls-11" d="M1285.19-101.81a4.81,4.81,0,0,1-4.83,4.78,4.8,4.8,0,0,1-4.83-4.78,4.81,4.81,0,0,1,4.83-4.79A4.81,4.81,0,0,1,1285.19-101.81Z" transform="translate(617.9 523.37)"/>
          </g>
        </g>
        <g>
          <g>
            <g>
              <line class="cls-12" x1="1692.92" y1="475.67" x2="1692.92" y2="500.76"/>
              <line class="cls-12" x1="1680.26" y1="488.21" x2="1705.58" y2="488.21"/>
            </g>
            <g>
              <line class="cls-12" x1="1761.94" y1="475.67" x2="1761.94" y2="500.76"/>
              <line class="cls-12" x1="1749.27" y1="488.21" x2="1774.6" y2="488.21"/>
            </g>
            <g>
              <line class="cls-12" x1="1830.95" y1="475.67" x2="1830.95" y2="500.76"/>
              <line class="cls-12" x1="1818.29" y1="488.21" x2="1843.62" y2="488.21"/>
            </g>
            <g>
              <line class="cls-12" x1="1899.97" y1="475.67" x2="1899.97" y2="500.76"/>
              <line class="cls-12" x1="1887.3" y1="488.21" x2="1912.63" y2="488.21"/>
            </g>
          </g>
          <g>
            <g>
              <line class="cls-12" x1="1692.92" y1="527.73" x2="1692.92" y2="552.82"/>
              <line class="cls-12" x1="1680.26" y1="540.27" x2="1705.58" y2="540.27"/>
            </g>
            <g>
              <line class="cls-12" x1="1761.94" y1="527.73" x2="1761.94" y2="552.82"/>
              <line class="cls-12" x1="1749.27" y1="540.27" x2="1774.6" y2="540.27"/>
            </g>
            <g>
              <line class="cls-12" x1="1830.95" y1="527.73" x2="1830.95" y2="552.82"/>
              <line class="cls-12" x1="1818.29" y1="540.27" x2="1843.62" y2="540.27"/>
            </g>
            <g>
              <line class="cls-12" x1="1899.97" y1="527.73" x2="1899.97" y2="552.82"/>
              <line class="cls-12" x1="1887.3" y1="540.27" x2="1912.63" y2="540.27"/>
            </g>
          </g>
          <g>
            <g>
              <line class="cls-12" x1="1692.92" y1="579.79" x2="1692.92" y2="604.88"/>
              <line class="cls-12" x1="1680.26" y1="592.33" x2="1705.58" y2="592.33"/>
            </g>
            <g>
              <line class="cls-12" x1="1761.94" y1="579.79" x2="1761.94" y2="604.88"/>
              <line class="cls-12" x1="1749.27" y1="592.33" x2="1774.6" y2="592.33"/>
            </g>
            <g>
              <line class="cls-12" x1="1830.95" y1="579.79" x2="1830.95" y2="604.88"/>
              <line class="cls-12" x1="1818.29" y1="592.33" x2="1843.62" y2="592.33"/>
            </g>
            <g>
              <line class="cls-12" x1="1899.97" y1="579.79" x2="1899.97" y2="604.88"/>
              <line class="cls-12" x1="1887.3" y1="592.33" x2="1912.63" y2="592.33"/>
            </g>
          </g>
          <g>
            <g>
              <line class="cls-12" x1="1692.92" y1="631.85" x2="1692.92" y2="656.94"/>
              <line class="cls-12" x1="1680.26" y1="644.4" x2="1705.58" y2="644.4"/>
            </g>
            <g>
              <line class="cls-12" x1="1761.94" y1="631.85" x2="1761.94" y2="656.94"/>
              <line class="cls-12" x1="1749.27" y1="644.4" x2="1774.6" y2="644.4"/>
            </g>
            <g>
              <line class="cls-12" x1="1830.95" y1="631.85" x2="1830.95" y2="656.94"/>
              <line class="cls-12" x1="1818.29" y1="644.4" x2="1843.62" y2="644.4"/>
            </g>
            <g>
              <line class="cls-12" x1="1899.97" y1="631.85" x2="1899.97" y2="656.94"/>
              <line class="cls-12" x1="1887.3" y1="644.4" x2="1912.63" y2="644.4"/>
            </g>
          </g>
        </g>
        <g>
          <path class="cls-13" d="M1087.68,255.76C969.57,212.32,878.63,113.52,847-8.82" transform="translate(617.9 523.37)"/>
          <path class="cls-14" d="M1374.33,249.2a389.82,389.82,0,0,1-151.65,30.48,394.14,394.14,0,0,1-66-5.54" transform="translate(617.9 523.37)"/>
          <path class="cls-14" d="M839.72-165.7c29.57-183.13,189.77-323,383-323,214.2,0,387.84,172,387.84,384.21,0,158.89-97.35,295.25-236.19,353.74" transform="translate(617.9 523.37)"/>
        </g>
        <path class="cls-14" d="M1156.7,270.26a10.23,10.23,0,1,1-10.23-10.12A10.18,10.18,0,0,1,1156.7,270.26Z" transform="translate(617.9 523.37)"/>
        <rect class="cls-13" x="1294.29" y="358.86" width="280.82" height="23.33"/>
        <g>
          <g>
            <polygon class="cls-15" points="883.33 257.02 876.39 250.14 883.33 243.26 890.28 250.14 883.33 257.02"/>
            <polygon class="cls-15" points="910.89 283.96 904.3 277.44 910.89 270.91 917.48 277.44 910.89 283.96"/>
            <polygon class="cls-15" points="938.44 310.91 932.2 304.73 938.44 298.55 944.68 304.73 938.44 310.91"/>
            <polygon class="cls-15" points="965.99 337.85 960.11 332.03 965.99 326.2 971.88 332.03 965.99 337.85"/>
            <polygon class="cls-15" points="993.54 364.8 988.02 359.32 993.54 353.84 999.08 359.32 993.54 364.8"/>
            <polygon class="cls-15" points="1021.1 391.74 1015.92 386.62 1021.1 381.49 1026.27 386.62 1021.1 391.74"/>
            <polygon class="cls-15" points="1048.65 418.69 1043.83 413.91 1048.65 409.13 1053.47 413.91 1048.65 418.69"/>
            <polygon class="cls-15" points="1076.2 445.63 1071.73 441.21 1076.2 436.78 1080.67 441.21 1076.2 445.63"/>
            <polygon class="cls-15" points="1103.76 472.58 1099.64 468.5 1103.76 464.42 1107.87 468.5 1103.76 472.58"/>
            <polygon class="cls-15" points="1131.31 499.52 1127.55 495.8 1131.31 492.07 1135.07 495.8 1131.31 499.52"/>
            <polygon class="cls-15" points="1158.86 526.47 1155.45 523.09 1158.86 519.71 1162.27 523.09 1158.86 526.47"/>
            <polygon class="cls-15" points="1186.42 553.41 1183.36 550.39 1186.42 547.36 1189.47 550.39 1186.42 553.41"/>
          </g>
          <g>
            <polygon class="cls-15" points="905.66 234.91 898.71 228.03 905.66 221.15 912.6 228.03 905.66 234.91"/>
            <polygon class="cls-15" points="933.21 261.85 926.62 255.32 933.21 248.79 939.8 255.32 933.21 261.85"/>
            <polygon class="cls-15" points="960.76 288.79 954.53 282.62 960.76 276.44 967 282.62 960.76 288.79"/>
            <polygon class="cls-15" points="988.32 315.74 982.43 309.91 988.32 304.08 994.2 309.91 988.32 315.74"/>
            <polygon class="cls-15" points="1015.87 342.68 1010.34 337.21 1015.87 331.73 1021.4 337.21 1015.87 342.68"/>
            <polygon class="cls-15" points="1043.42 369.63 1038.25 364.5 1043.42 359.37 1048.6 364.5 1043.42 369.63"/>
            <polygon class="cls-15" points="1070.97 396.57 1066.15 391.8 1070.97 387.02 1075.8 391.8 1070.97 396.57"/>
            <polygon class="cls-15" points="1098.53 423.52 1094.06 419.09 1098.53 414.66 1103 419.09 1098.53 423.52"/>
            <polygon class="cls-15" points="1126.08 450.46 1121.97 446.39 1126.08 442.31 1130.2 446.39 1126.08 450.46"/>
            <polygon class="cls-15" points="1153.63 477.41 1149.87 473.68 1153.63 469.95 1157.4 473.68 1153.63 477.41"/>
            <polygon class="cls-15" points="1181.19 504.35 1177.78 500.98 1181.19 497.6 1184.6 500.98 1181.19 504.35"/>
            <polygon class="cls-15" points="1208.74 531.3 1205.68 528.27 1208.74 525.25 1211.8 528.27 1208.74 531.3"/>
          </g>
          <g>
            <polygon class="cls-15" points="927.98 212.79 921.04 205.91 927.98 199.03 934.92 205.91 927.98 212.79"/>
            <polygon class="cls-15" points="955.53 239.74 948.94 233.21 955.53 226.68 962.12 233.21 955.53 239.74"/>
            <polygon class="cls-15" points="983.09 266.68 976.85 260.5 983.09 254.32 989.32 260.5 983.09 266.68"/>
            <polygon class="cls-15" points="1010.64 293.62 1004.76 287.8 1010.64 281.97 1016.52 287.8 1010.64 293.62"/>
            <polygon class="cls-15" points="1038.19 320.57 1032.66 315.09 1038.19 309.61 1043.72 315.09 1038.19 320.57"/>
            <polygon class="cls-15" points="1065.75 347.51 1060.57 342.39 1065.75 337.26 1070.92 342.39 1065.75 347.51"/>
            <polygon class="cls-15" points="1093.3 374.46 1088.48 369.68 1093.3 364.9 1098.12 369.68 1093.3 374.46"/>
            <polygon class="cls-15" points="1120.85 401.4 1116.38 396.98 1120.85 392.55 1125.32 396.98 1120.85 401.4"/>
            <polygon class="cls-15" points="1148.4 428.35 1144.29 424.27 1148.4 420.19 1152.52 424.27 1148.4 428.35"/>
            <polygon class="cls-15" points="1175.96 455.29 1172.2 451.57 1175.96 447.84 1179.72 451.57 1175.96 455.29"/>
            <polygon class="cls-15" points="1203.51 482.24 1200.1 478.86 1203.51 475.49 1206.92 478.86 1203.51 482.24"/>
            <polygon class="cls-15" points="1231.06 509.18 1228.01 506.16 1231.06 503.13 1234.12 506.16 1231.06 509.18"/>
          </g>
          <g>
            <polygon class="cls-15" points="950.3 190.68 943.36 183.8 950.3 176.92 957.25 183.8 950.3 190.68"/>
            <polygon class="cls-15" points="977.86 217.62 971.27 211.09 977.86 204.56 984.45 211.09 977.86 217.62"/>
            <polygon class="cls-15" points="1005.41 244.56 999.17 238.39 1005.41 232.21 1011.65 238.39 1005.41 244.56"/>
            <polygon class="cls-15" points="1032.96 271.51 1027.08 265.68 1032.96 259.85 1038.85 265.68 1032.96 271.51"/>
            <polygon class="cls-15" points="1060.52 298.45 1054.99 292.98 1060.52 287.5 1066.05 292.98 1060.52 298.45"/>
            <polygon class="cls-15" points="1088.07 325.4 1082.89 320.27 1088.07 315.14 1093.24 320.27 1088.07 325.4"/>
            <polygon class="cls-15" points="1115.62 352.34 1110.8 347.57 1115.62 342.79 1120.44 347.57 1115.62 352.34"/>
            <polygon class="cls-15" points="1143.18 379.29 1138.71 374.86 1143.18 370.43 1147.64 374.86 1143.18 379.29"/>
            <polygon class="cls-15" points="1170.73 406.23 1166.61 402.16 1170.73 398.08 1174.84 402.16 1170.73 406.23"/>
            <polygon class="cls-15" points="1198.28 433.18 1194.52 429.45 1198.28 425.73 1202.04 429.45 1198.28 433.18"/>
            <polygon class="cls-15" points="1225.84 460.12 1222.43 456.75 1225.84 453.37 1229.24 456.75 1225.84 460.12"/>
            <polygon class="cls-15" points="1253.39 487.07 1250.33 484.04 1253.39 481.01 1256.44 484.04 1253.39 487.07"/>
          </g>
          <g>
            <polygon class="cls-15" points="972.63 168.56 965.68 161.68 972.63 154.8 979.57 161.68 972.63 168.56"/>
            <polygon class="cls-15" points="1000.18 195.5 993.59 188.98 1000.18 182.45 1006.77 188.98 1000.18 195.5"/>
            <polygon class="cls-15" points="1027.73 222.45 1021.5 216.27 1027.73 210.09 1033.97 216.27 1027.73 222.45"/>
            <polygon class="cls-15" points="1055.29 249.4 1049.4 243.57 1055.29 237.74 1061.17 243.57 1055.29 249.4"/>
            <polygon class="cls-15" points="1082.84 276.34 1077.31 270.86 1082.84 265.38 1088.37 270.86 1082.84 276.34"/>
            <polygon class="cls-15" points="1110.39 303.28 1105.22 298.16 1110.39 293.03 1115.57 298.16 1110.39 303.28"/>
            <polygon class="cls-15" points="1137.95 330.23 1133.12 325.45 1137.95 320.68 1142.77 325.45 1137.95 330.23"/>
            <polygon class="cls-15" points="1165.5 357.17 1161.03 352.75 1165.5 348.32 1169.97 352.75 1165.5 357.17"/>
            <polygon class="cls-15" points="1193.05 384.12 1188.94 380.04 1193.05 375.96 1197.17 380.04 1193.05 384.12"/>
            <polygon class="cls-15" points="1220.61 411.06 1216.84 407.34 1220.61 403.61 1224.37 407.34 1220.61 411.06"/>
            <polygon class="cls-15" points="1248.16 438.01 1244.75 434.63 1248.16 431.25 1251.57 434.63 1248.16 438.01"/>
            <polygon class="cls-15" points="1275.71 464.95 1272.66 461.93 1275.71 458.9 1278.77 461.93 1275.71 464.95"/>
          </g>
          <g>
            <polygon class="cls-15" points="994.95 146.45 988.01 139.57 994.95 132.69 1001.9 139.57 994.95 146.45"/>
            <polygon class="cls-15" points="1022.5 173.39 1015.91 166.86 1022.5 160.33 1029.1 166.86 1022.5 173.39"/>
            <polygon class="cls-15" points="1050.06 200.34 1043.82 194.16 1050.06 187.98 1056.3 194.16 1050.06 200.34"/>
            <polygon class="cls-15" points="1077.61 227.28 1071.73 221.45 1077.61 215.62 1083.49 221.45 1077.61 227.28"/>
            <polygon class="cls-15" points="1105.16 254.22 1099.63 248.75 1105.16 243.27 1110.69 248.75 1105.16 254.22"/>
            <polygon class="cls-15" points="1132.72 281.17 1127.54 276.04 1132.72 270.92 1137.89 276.04 1132.72 281.17"/>
            <polygon class="cls-15" points="1160.27 308.11 1155.45 303.34 1160.27 298.56 1165.09 303.34 1160.27 308.11"/>
            <polygon class="cls-15" points="1187.82 335.06 1183.35 330.63 1187.82 326.2 1192.29 330.63 1187.82 335.06"/>
            <polygon class="cls-15" points="1215.38 362 1211.26 357.93 1215.38 353.85 1219.49 357.93 1215.38 362"/>
            <polygon class="cls-15" points="1242.93 388.95 1239.17 385.22 1242.93 381.5 1246.69 385.22 1242.93 388.95"/>
            <polygon class="cls-15" points="1270.48 415.89 1267.07 412.52 1270.48 409.14 1273.89 412.52 1270.48 415.89"/>
            <polygon class="cls-15" points="1298.04 442.84 1294.98 439.81 1298.04 436.79 1301.09 439.81 1298.04 442.84"/>
          </g>
          <g>
            <polygon class="cls-15" points="1017.28 124.33 1010.33 117.45 1017.28 110.57 1024.22 117.45 1017.28 124.33"/>
            <polygon class="cls-15" points="1044.83 151.28 1038.24 144.75 1044.83 138.22 1051.42 144.75 1044.83 151.28"/>
            <polygon class="cls-15" points="1072.38 178.22 1066.15 172.04 1072.38 165.86 1078.62 172.04 1072.38 178.22"/>
            <polygon class="cls-15" points="1099.93 205.16 1094.05 199.34 1099.93 193.51 1105.82 199.34 1099.93 205.16"/>
            <polygon class="cls-15" points="1127.49 232.11 1121.96 226.63 1127.49 221.16 1133.02 226.63 1127.49 232.11"/>
            <polygon class="cls-15" points="1155.04 259.06 1149.87 253.93 1155.04 248.8 1160.22 253.93 1155.04 259.06"/>
            <polygon class="cls-15" points="1182.59 286 1177.77 281.22 1182.59 276.44 1187.42 281.22 1182.59 286"/>
            <polygon class="cls-15" points="1210.15 312.94 1205.68 308.52 1210.15 304.09 1214.62 308.52 1210.15 312.94"/>
            <polygon class="cls-15" points="1237.7 339.89 1233.59 335.81 1237.7 331.74 1241.82 335.81 1237.7 339.89"/>
            <polygon class="cls-15" points="1265.25 366.83 1261.49 363.11 1265.25 359.38 1269.02 363.11 1265.25 366.83"/>
            <polygon class="cls-15" points="1292.81 393.78 1289.4 390.4 1292.81 387.03 1296.21 390.4 1292.81 393.78"/>
            <polygon class="cls-15" points="1320.36 420.72 1317.31 417.7 1320.36 414.67 1323.41 417.7 1320.36 420.72"/>
          </g>
          <g>
            <polygon class="cls-15" points="1039.6 102.22 1032.66 95.34 1039.6 88.46 1046.54 95.34 1039.6 102.22"/>
            <polygon class="cls-15" points="1067.15 129.16 1060.56 122.63 1067.15 116.1 1073.74 122.63 1067.15 129.16"/>
            <polygon class="cls-15" points="1094.71 156.11 1088.47 149.93 1094.71 143.75 1100.94 149.93 1094.71 156.11"/>
            <polygon class="cls-15" points="1122.26 183.05 1116.38 177.22 1122.26 171.4 1128.14 177.22 1122.26 183.05"/>
            <polygon class="cls-15" points="1149.81 210 1144.28 204.52 1149.81 199.04 1155.34 204.52 1149.81 210"/>
            <polygon class="cls-15" points="1177.37 236.94 1172.19 231.81 1177.37 226.69 1182.54 231.81 1177.37 236.94"/>
            <polygon class="cls-15" points="1204.92 263.88 1200.1 259.11 1204.92 254.33 1209.74 259.11 1204.92 263.88"/>
            <polygon class="cls-15" points="1232.47 290.83 1228 286.4 1232.47 281.98 1236.94 286.4 1232.47 290.83"/>
            <polygon class="cls-15" points="1260.02 317.77 1255.91 313.7 1260.02 309.62 1264.14 313.7 1260.02 317.77"/>
            <polygon class="cls-15" points="1287.58 344.72 1283.82 340.99 1287.58 337.27 1291.34 340.99 1287.58 344.72"/>
            <polygon class="cls-15" points="1315.13 371.66 1311.72 368.29 1315.13 364.91 1318.54 368.29 1315.13 371.66"/>
            <polygon class="cls-15" points="1342.68 398.61 1339.63 395.58 1342.68 392.56 1345.74 395.58 1342.68 398.61"/>
          </g>
          <g>
            <polygon class="cls-15" points="1061.92 80.1 1054.98 73.22 1061.92 66.34 1068.87 73.22 1061.92 80.1"/>
            <polygon class="cls-15" points="1089.48 107.05 1082.89 100.52 1089.48 93.99 1096.07 100.52 1089.48 107.05"/>
            <polygon class="cls-15" points="1117.03 133.99 1110.79 127.81 1117.03 121.64 1123.27 127.81 1117.03 133.99"/>
            <polygon class="cls-15" points="1144.58 160.94 1138.7 155.11 1144.58 149.28 1150.47 155.11 1144.58 160.94"/>
            <polygon class="cls-15" points="1172.14 187.88 1166.61 182.4 1172.14 176.93 1177.66 182.4 1172.14 187.88"/>
            <polygon class="cls-15" points="1199.69 214.82 1194.51 209.7 1199.69 204.57 1204.87 209.7 1199.69 214.82"/>
            <polygon class="cls-15" points="1227.24 241.77 1222.42 236.99 1227.24 232.22 1232.06 236.99 1227.24 241.77"/>
            <polygon class="cls-15" points="1254.8 268.71 1250.33 264.29 1254.8 259.86 1259.26 264.29 1254.8 268.71"/>
            <polygon class="cls-15" points="1282.35 295.66 1278.23 291.58 1282.35 287.51 1286.46 291.58 1282.35 295.66"/>
            <polygon class="cls-15" points="1309.9 322.6 1306.14 318.88 1309.9 315.15 1313.66 318.88 1309.9 322.6"/>
            <polygon class="cls-15" points="1337.45 349.55 1334.05 346.17 1337.45 342.8 1340.86 346.17 1337.45 349.55"/>
            <polygon class="cls-15" points="1365.01 376.49 1361.95 373.47 1365.01 370.44 1368.06 373.47 1365.01 376.49"/>
          </g>
          <g>
            <polygon class="cls-15" points="1084.25 57.99 1077.3 51.11 1084.25 44.23 1091.19 51.11 1084.25 57.99"/>
            <polygon class="cls-15" points="1111.8 84.93 1105.21 78.4 1111.8 71.88 1118.39 78.4 1111.8 84.93"/>
            <polygon class="cls-15" points="1139.35 111.88 1133.12 105.7 1139.35 99.52 1145.59 105.7 1139.35 111.88"/>
            <polygon class="cls-15" points="1166.91 138.82 1161.02 132.99 1166.91 127.17 1172.79 132.99 1166.91 138.82"/>
            <polygon class="cls-15" points="1194.46 165.77 1188.93 160.29 1194.46 154.81 1199.99 160.29 1194.46 165.77"/>
            <polygon class="cls-15" points="1222.01 192.71 1216.84 187.58 1222.01 182.46 1227.19 187.58 1222.01 192.71"/>
            <polygon class="cls-15" points="1249.57 219.66 1244.74 214.88 1249.57 210.1 1254.39 214.88 1249.57 219.66"/>
            <polygon class="cls-15" points="1277.12 246.6 1272.65 242.17 1277.12 237.75 1281.59 242.17 1277.12 246.6"/>
            <polygon class="cls-15" points="1304.67 273.54 1300.56 269.47 1304.67 265.39 1308.79 269.47 1304.67 273.54"/>
            <polygon class="cls-15" points="1332.22 300.49 1328.46 296.76 1332.22 293.04 1335.99 296.76 1332.22 300.49"/>
            <polygon class="cls-15" points="1359.78 327.43 1356.37 324.06 1359.78 320.68 1363.19 324.06 1359.78 327.43"/>
            <polygon class="cls-15" points="1387.33 354.38 1384.28 351.35 1387.33 348.33 1390.38 351.35 1387.33 354.38"/>
          </g>
          <g>
            <polygon class="cls-15" points="1106.57 35.87 1099.63 28.99 1106.57 22.11 1113.52 28.99 1106.57 35.87"/>
            <polygon class="cls-15" points="1134.13 62.82 1127.53 56.29 1134.13 49.76 1140.71 56.29 1134.13 62.82"/>
            <polygon class="cls-15" points="1161.68 89.76 1155.44 83.58 1161.68 77.41 1167.91 83.58 1161.68 89.76"/>
            <polygon class="cls-15" points="1189.23 116.71 1183.35 110.88 1189.23 105.05 1195.11 110.88 1189.23 116.71"/>
            <polygon class="cls-15" points="1216.78 143.65 1211.25 138.17 1216.78 132.7 1222.31 138.17 1216.78 143.65"/>
            <polygon class="cls-15" points="1244.34 170.59 1239.16 165.47 1244.34 160.34 1249.51 165.47 1244.34 170.59"/>
            <polygon class="cls-15" points="1271.89 197.54 1267.07 192.76 1271.89 187.99 1276.71 192.76 1271.89 197.54"/>
            <polygon class="cls-15" points="1299.44 224.49 1294.97 220.06 1299.44 215.63 1303.91 220.06 1299.44 224.49"/>
            <polygon class="cls-15" points="1326.99 251.43 1322.88 247.35 1326.99 243.28 1331.11 247.35 1326.99 251.43"/>
            <polygon class="cls-15" points="1354.55 278.37 1350.79 274.65 1354.55 270.92 1358.31 274.65 1354.55 278.37"/>
            <polygon class="cls-15" points="1382.1 305.32 1378.69 301.94 1382.1 298.57 1385.51 301.94 1382.1 305.32"/>
            <polygon class="cls-15" points="1409.65 332.26 1406.6 329.24 1409.65 326.21 1412.71 329.24 1409.65 332.26"/>
          </g>
          <g>
            <polygon class="cls-15" points="1128.89 13.76 1121.95 6.88 1128.89 0 1135.84 6.88 1128.89 13.76"/>
            <polygon class="cls-15" points="1156.45 40.7 1149.86 34.17 1156.45 27.64 1163.04 34.17 1156.45 40.7"/>
            <polygon class="cls-15" points="1184 67.65 1177.77 61.47 1184 55.29 1190.24 61.47 1184 67.65"/>
            <polygon class="cls-15" points="1211.55 94.59 1205.67 88.76 1211.55 82.94 1217.44 88.76 1211.55 94.59"/>
            <polygon class="cls-15" points="1239.11 121.54 1233.58 116.06 1239.11 110.58 1244.64 116.06 1239.11 121.54"/>
            <polygon class="cls-15" points="1266.66 148.48 1261.48 143.35 1266.66 138.23 1271.84 143.35 1266.66 148.48"/>
            <polygon class="cls-15" points="1294.21 175.43 1289.39 170.65 1294.21 165.87 1299.04 170.65 1294.21 175.43"/>
            <polygon class="cls-15" points="1321.77 202.37 1317.3 197.94 1321.77 193.52 1326.23 197.94 1321.77 202.37"/>
            <polygon class="cls-15" points="1349.32 229.31 1345.2 225.24 1349.32 221.16 1353.43 225.24 1349.32 229.31"/>
            <polygon class="cls-15" points="1376.87 256.26 1373.11 252.53 1376.87 248.81 1380.63 252.53 1376.87 256.26"/>
            <polygon class="cls-15" points="1404.42 283.2 1401.02 279.83 1404.42 276.45 1407.83 279.83 1404.42 283.2"/>
            <polygon class="cls-15" points="1431.98 310.15 1428.92 307.12 1431.98 304.1 1435.03 307.12 1431.98 310.15"/>
          </g>
        </g>
        <g>
          <g>
            <polygon class="cls-15" points="1805.89 1434.57 1812.83 1441.44 1805.89 1448.32 1798.95 1441.44 1805.89 1434.57"/>
            <polygon class="cls-15" points="1778.34 1407.62 1784.93 1414.15 1778.34 1420.68 1771.75 1414.15 1778.34 1407.62"/>
            <polygon class="cls-15" points="1750.78 1380.68 1757.02 1386.86 1750.78 1393.03 1744.55 1386.86 1750.78 1380.68"/>
            <polygon class="cls-15" points="1723.23 1353.73 1729.11 1359.56 1723.23 1365.39 1717.35 1359.56 1723.23 1353.73"/>
            <polygon class="cls-15" points="1695.68 1326.79 1701.21 1332.27 1695.68 1337.74 1690.15 1332.27 1695.68 1326.79"/>
            <polygon class="cls-15" points="1668.13 1299.84 1673.3 1304.97 1668.13 1310.1 1662.95 1304.97 1668.13 1299.84"/>
            <polygon class="cls-15" points="1640.57 1272.9 1645.39 1277.67 1640.57 1282.45 1635.75 1277.67 1640.57 1272.9"/>
            <polygon class="cls-15" points="1613.02 1245.95 1617.49 1250.38 1613.02 1254.81 1608.55 1250.38 1613.02 1245.95"/>
            <polygon class="cls-15" points="1585.47 1219.01 1589.58 1223.09 1585.47 1227.16 1581.35 1223.09 1585.47 1219.01"/>
            <polygon class="cls-15" points="1557.91 1192.06 1561.67 1195.79 1557.91 1199.52 1554.15 1195.79 1557.91 1192.06"/>
            <polygon class="cls-15" points="1530.36 1165.12 1533.77 1168.49 1530.36 1171.87 1526.95 1168.49 1530.36 1165.12"/>
            <polygon class="cls-15" points="1502.81 1138.17 1505.86 1141.2 1502.81 1144.23 1499.75 1141.2 1502.81 1138.17"/>
          </g>
          <g>
            <polygon class="cls-15" points="1783.57 1456.68 1790.51 1463.56 1783.57 1470.44 1776.62 1463.56 1783.57 1456.68"/>
            <polygon class="cls-15" points="1756.01 1429.74 1762.6 1436.26 1756.01 1442.79 1749.42 1436.26 1756.01 1429.74"/>
            <polygon class="cls-15" points="1728.46 1402.79 1734.7 1408.97 1728.46 1415.15 1722.22 1408.97 1728.46 1402.79"/>
            <polygon class="cls-15" points="1700.91 1375.85 1706.79 1381.67 1700.91 1387.5 1695.03 1381.67 1700.91 1375.85"/>
            <polygon class="cls-15" points="1673.35 1348.9 1678.88 1354.38 1673.36 1359.86 1667.83 1354.38 1673.35 1348.9"/>
            <polygon class="cls-15" points="1645.8 1321.96 1650.98 1327.09 1645.8 1332.21 1640.63 1327.09 1645.8 1321.96"/>
            <polygon class="cls-15" points="1618.25 1295.01 1623.07 1299.79 1618.25 1304.57 1613.43 1299.79 1618.25 1295.01"/>
            <polygon class="cls-15" points="1590.7 1268.07 1595.16 1272.49 1590.7 1276.92 1586.23 1272.49 1590.7 1268.07"/>
            <polygon class="cls-15" points="1563.14 1241.12 1567.26 1245.2 1563.14 1249.28 1559.03 1245.2 1563.14 1241.12"/>
            <polygon class="cls-15" points="1535.59 1214.18 1539.35 1217.9 1535.59 1221.63 1531.83 1217.9 1535.59 1214.18"/>
            <polygon class="cls-15" points="1508.04 1187.23 1511.44 1190.61 1508.04 1193.99 1504.63 1190.61 1508.04 1187.23"/>
            <polygon class="cls-15" points="1480.48 1160.29 1483.54 1163.32 1480.48 1166.34 1477.43 1163.32 1480.48 1160.29"/>
          </g>
          <g>
            <polygon class="cls-15" points="1761.24 1478.8 1768.19 1485.67 1761.24 1492.55 1754.3 1485.67 1761.24 1478.8"/>
            <polygon class="cls-15" points="1733.69 1451.85 1740.28 1458.38 1733.69 1464.91 1727.1 1458.38 1733.69 1451.85"/>
            <polygon class="cls-15" points="1706.14 1424.91 1712.37 1431.08 1706.14 1437.26 1699.9 1431.08 1706.14 1424.91"/>
            <polygon class="cls-15" points="1678.58 1397.96 1684.47 1403.79 1678.58 1409.62 1672.7 1403.79 1678.58 1397.96"/>
            <polygon class="cls-15" points="1651.03 1371.02 1656.56 1376.49 1651.03 1381.97 1645.5 1376.49 1651.03 1371.02"/>
            <polygon class="cls-15" points="1623.48 1344.07 1628.65 1349.2 1623.48 1354.33 1618.3 1349.2 1623.48 1344.07"/>
            <polygon class="cls-15" points="1595.92 1317.13 1600.75 1321.9 1595.92 1326.68 1591.1 1321.9 1595.92 1317.13"/>
            <polygon class="cls-15" points="1568.37 1290.18 1572.84 1294.61 1568.37 1299.04 1563.9 1294.61 1568.37 1290.18"/>
            <polygon class="cls-15" points="1540.82 1263.24 1544.93 1267.31 1540.82 1271.39 1536.7 1267.31 1540.82 1263.24"/>
            <polygon class="cls-15" points="1513.27 1236.29 1517.03 1240.02 1513.27 1243.75 1509.5 1240.02 1513.27 1236.29"/>
            <polygon class="cls-15" points="1485.71 1209.35 1489.12 1212.72 1485.71 1216.1 1482.31 1212.72 1485.71 1209.35"/>
            <polygon class="cls-15" points="1458.16 1182.4 1461.21 1185.43 1458.16 1188.46 1455.11 1185.43 1458.16 1182.4"/>
          </g>
          <g>
            <polygon class="cls-15" points="1738.92 1500.91 1745.86 1507.79 1738.92 1514.67 1731.97 1507.79 1738.92 1500.91"/>
            <polygon class="cls-15" points="1711.37 1473.97 1717.96 1480.49 1711.37 1487.02 1704.78 1480.49 1711.37 1473.97"/>
            <polygon class="cls-15" points="1683.81 1447.02 1690.05 1453.2 1683.81 1459.38 1677.58 1453.2 1683.81 1447.02"/>
            <polygon class="cls-15" points="1656.26 1420.08 1662.14 1425.9 1656.26 1431.73 1650.38 1425.9 1656.26 1420.08"/>
            <polygon class="cls-15" points="1628.71 1393.13 1634.24 1398.61 1628.71 1404.09 1623.18 1398.61 1628.71 1393.13"/>
            <polygon class="cls-15" points="1601.15 1366.19 1606.33 1371.31 1601.15 1376.44 1595.98 1371.31 1601.15 1366.19"/>
            <polygon class="cls-15" points="1573.6 1339.24 1578.42 1344.02 1573.6 1348.8 1568.78 1344.02 1573.6 1339.24"/>
            <polygon class="cls-15" points="1546.05 1312.3 1550.52 1316.72 1546.05 1321.15 1541.58 1316.72 1546.05 1312.3"/>
            <polygon class="cls-15" points="1518.49 1285.35 1522.61 1289.43 1518.49 1293.51 1514.38 1289.43 1518.49 1285.35"/>
            <polygon class="cls-15" points="1490.94 1258.41 1494.7 1262.13 1490.94 1265.86 1487.18 1262.13 1490.94 1258.41"/>
            <polygon class="cls-15" points="1463.39 1231.46 1466.8 1234.84 1463.39 1238.22 1459.98 1234.84 1463.39 1231.46"/>
            <polygon class="cls-15" points="1435.84 1204.52 1438.89 1207.54 1435.84 1210.57 1432.78 1207.54 1435.84 1204.52"/>
          </g>
          <g>
            <polygon class="cls-15" points="1716.6 1523.03 1723.54 1529.9 1716.6 1536.78 1709.65 1529.9 1716.6 1523.03"/>
            <polygon class="cls-15" points="1689.04 1496.08 1695.63 1502.61 1689.04 1509.14 1682.45 1502.61 1689.04 1496.08"/>
            <polygon class="cls-15" points="1661.49 1469.14 1667.72 1475.31 1661.49 1481.49 1655.25 1475.31 1661.49 1469.14"/>
            <polygon class="cls-15" points="1633.94 1442.19 1639.82 1448.02 1633.94 1453.85 1628.05 1448.02 1633.94 1442.19"/>
            <polygon class="cls-15" points="1606.38 1415.25 1611.91 1420.72 1606.38 1426.2 1600.85 1420.72 1606.38 1415.25"/>
            <polygon class="cls-15" points="1578.83 1388.3 1584.01 1393.43 1578.83 1398.56 1573.65 1393.43 1578.83 1388.3"/>
            <polygon class="cls-15" points="1551.28 1361.36 1556.1 1366.13 1551.28 1370.91 1546.45 1366.13 1551.28 1361.36"/>
            <polygon class="cls-15" points="1523.72 1334.41 1528.19 1338.84 1523.72 1343.27 1519.26 1338.84 1523.72 1334.41"/>
            <polygon class="cls-15" points="1496.17 1307.47 1500.29 1311.54 1496.17 1315.62 1492.06 1311.54 1496.17 1307.47"/>
            <polygon class="cls-15" points="1468.62 1280.52 1472.38 1284.25 1468.62 1287.97 1464.86 1284.25 1468.62 1280.52"/>
            <polygon class="cls-15" points="1441.07 1253.58 1444.47 1256.95 1441.07 1260.33 1437.66 1256.95 1441.07 1253.58"/>
            <polygon class="cls-15" points="1413.51 1226.63 1416.57 1229.66 1413.51 1232.68 1410.46 1229.66 1413.51 1226.63"/>
          </g>
          <g>
            <polygon class="cls-15" points="1694.27 1545.14 1701.21 1552.02 1694.27 1558.9 1687.33 1552.02 1694.27 1545.14"/>
            <polygon class="cls-15" points="1666.72 1518.19 1673.31 1524.72 1666.72 1531.25 1660.13 1524.72 1666.72 1518.19"/>
            <polygon class="cls-15" points="1639.16 1491.25 1645.4 1497.43 1639.16 1503.61 1632.93 1497.43 1639.16 1491.25"/>
            <polygon class="cls-15" points="1611.61 1464.31 1617.49 1470.13 1611.61 1475.96 1605.73 1470.13 1611.61 1464.31"/>
            <polygon class="cls-15" points="1584.06 1437.36 1589.59 1442.84 1584.06 1448.32 1578.53 1442.84 1584.06 1437.36"/>
            <polygon class="cls-15" points="1556.51 1410.42 1561.68 1415.54 1556.51 1420.67 1551.33 1415.54 1556.51 1410.42"/>
            <polygon class="cls-15" points="1528.95 1383.47 1533.78 1388.25 1528.95 1393.03 1524.13 1388.25 1528.95 1383.47"/>
            <polygon class="cls-15" points="1501.4 1356.53 1505.87 1360.95 1501.4 1365.38 1496.93 1360.95 1501.4 1356.53"/>
            <polygon class="cls-15" points="1473.85 1329.58 1477.96 1333.66 1473.85 1337.73 1469.73 1333.66 1473.85 1329.58"/>
            <polygon class="cls-15" points="1446.29 1302.64 1450.06 1306.36 1446.29 1310.09 1442.53 1306.36 1446.29 1302.64"/>
            <polygon class="cls-15" points="1418.74 1275.69 1422.15 1279.07 1418.74 1282.44 1415.33 1279.07 1418.74 1275.69"/>
            <polygon class="cls-15" points="1391.19 1248.75 1394.24 1251.77 1391.19 1254.8 1388.13 1251.77 1391.19 1248.75"/>
          </g>
          <g>
            <polygon class="cls-15" points="1671.95 1567.26 1678.89 1574.13 1671.95 1581.01 1665 1574.13 1671.95 1567.26"/>
            <polygon class="cls-15" points="1644.39 1540.31 1650.98 1546.84 1644.39 1553.37 1637.8 1546.84 1644.39 1540.31"/>
            <polygon class="cls-15" points="1616.84 1513.37 1623.08 1519.54 1616.84 1525.72 1610.61 1519.54 1616.84 1513.37"/>
            <polygon class="cls-15" points="1589.29 1486.42 1595.17 1492.25 1589.29 1498.08 1583.4 1492.25 1589.29 1486.42"/>
            <polygon class="cls-15" points="1561.74 1459.48 1567.27 1464.95 1561.74 1470.43 1556.21 1464.95 1561.74 1459.48"/>
            <polygon class="cls-15" points="1534.18 1432.53 1539.36 1437.66 1534.18 1442.79 1529.01 1437.66 1534.18 1432.53"/>
            <polygon class="cls-15" points="1506.63 1405.59 1511.45 1410.36 1506.63 1415.14 1501.81 1410.36 1506.63 1405.59"/>
            <polygon class="cls-15" points="1479.08 1378.64 1483.55 1383.07 1479.08 1387.49 1474.61 1383.07 1479.08 1378.64"/>
            <polygon class="cls-15" points="1451.52 1351.7 1455.64 1355.77 1451.52 1359.85 1447.41 1355.77 1451.52 1351.7"/>
            <polygon class="cls-15" points="1423.97 1324.75 1427.73 1328.48 1423.97 1332.2 1420.21 1328.48 1423.97 1324.75"/>
            <polygon class="cls-15" points="1396.42 1297.81 1399.83 1301.18 1396.42 1304.56 1393.01 1301.18 1396.42 1297.81"/>
            <polygon class="cls-15" points="1368.86 1270.86 1371.92 1273.89 1368.86 1276.91 1365.81 1273.89 1368.86 1270.86"/>
          </g>
          <g>
            <polygon class="cls-15" points="1649.62 1589.37 1656.57 1596.25 1649.62 1603.13 1642.68 1596.25 1649.62 1589.37"/>
            <polygon class="cls-15" points="1622.07 1562.42 1628.66 1568.95 1622.07 1575.48 1615.48 1568.95 1622.07 1562.42"/>
            <polygon class="cls-15" points="1594.52 1535.48 1600.75 1541.66 1594.52 1547.84 1588.28 1541.66 1594.52 1535.48"/>
            <polygon class="cls-15" points="1566.96 1508.54 1572.85 1514.36 1566.96 1520.19 1561.08 1514.36 1566.96 1508.54"/>
            <polygon class="cls-15" points="1539.41 1481.59 1544.94 1487.07 1539.41 1492.55 1533.88 1487.07 1539.41 1481.59"/>
            <polygon class="cls-15" points="1511.86 1454.65 1517.03 1459.77 1511.86 1464.9 1506.68 1459.77 1511.86 1454.65"/>
            <polygon class="cls-15" points="1484.31 1427.7 1489.13 1432.48 1484.31 1437.26 1479.48 1432.48 1484.31 1427.7"/>
            <polygon class="cls-15" points="1456.75 1400.76 1461.22 1405.18 1456.75 1409.61 1452.28 1405.18 1456.75 1400.76"/>
            <polygon class="cls-15" points="1429.2 1373.81 1433.32 1377.89 1429.2 1381.96 1425.08 1377.89 1429.2 1373.81"/>
            <polygon class="cls-15" points="1401.65 1346.87 1405.41 1350.59 1401.65 1354.32 1397.88 1350.59 1401.65 1346.87"/>
            <polygon class="cls-15" points="1374.09 1319.92 1377.5 1323.3 1374.09 1326.67 1370.68 1323.3 1374.09 1319.92"/>
            <polygon class="cls-15" points="1346.54 1292.98 1349.6 1296 1346.54 1299.03 1343.49 1296 1346.54 1292.98"/>
          </g>
          <g>
            <polygon class="cls-15" points="1627.3 1611.48 1634.24 1618.36 1627.3 1625.24 1620.36 1618.36 1627.3 1611.48"/>
            <polygon class="cls-15" points="1599.75 1584.54 1606.34 1591.07 1599.75 1597.6 1593.16 1591.07 1599.75 1584.54"/>
            <polygon class="cls-15" points="1572.19 1557.6 1578.43 1563.77 1572.19 1569.95 1565.96 1563.77 1572.19 1557.6"/>
            <polygon class="cls-15" points="1544.64 1530.65 1550.52 1536.48 1544.64 1542.31 1538.76 1536.48 1544.64 1530.65"/>
            <polygon class="cls-15" points="1517.09 1503.7 1522.62 1509.18 1517.09 1514.66 1511.56 1509.18 1517.09 1503.7"/>
            <polygon class="cls-15" points="1489.54 1476.76 1494.71 1481.89 1489.54 1487.02 1484.36 1481.89 1489.54 1476.76"/>
            <polygon class="cls-15" points="1461.98 1449.82 1466.8 1454.59 1461.98 1459.37 1457.16 1454.59 1461.98 1449.82"/>
            <polygon class="cls-15" points="1434.43 1422.87 1438.9 1427.3 1434.43 1431.72 1429.96 1427.3 1434.43 1422.87"/>
            <polygon class="cls-15" points="1406.88 1395.93 1410.99 1400 1406.88 1404.08 1402.76 1400 1406.88 1395.93"/>
            <polygon class="cls-15" points="1379.32 1368.98 1383.09 1372.71 1379.32 1376.43 1375.56 1372.71 1379.32 1368.98"/>
            <polygon class="cls-15" points="1351.77 1342.04 1355.18 1345.41 1351.77 1348.79 1348.36 1345.41 1351.77 1342.04"/>
            <polygon class="cls-15" points="1324.22 1315.09 1327.27 1318.12 1324.22 1321.14 1321.16 1318.12 1324.22 1315.09"/>
          </g>
          <g>
            <polygon class="cls-15" points="1604.98 1633.6 1611.92 1640.48 1604.98 1647.36 1598.03 1640.48 1604.98 1633.6"/>
            <polygon class="cls-15" points="1577.42 1606.65 1584.01 1613.18 1577.42 1619.71 1570.83 1613.18 1577.42 1606.65"/>
            <polygon class="cls-15" points="1549.87 1579.71 1556.11 1585.89 1549.87 1592.07 1543.63 1585.89 1549.87 1579.71"/>
            <polygon class="cls-15" points="1522.32 1552.77 1528.2 1558.59 1522.32 1564.42 1516.43 1558.59 1522.32 1552.77"/>
            <polygon class="cls-15" points="1494.76 1525.82 1500.29 1531.3 1494.76 1536.78 1489.23 1531.3 1494.76 1525.82"/>
            <polygon class="cls-15" points="1467.21 1498.88 1472.39 1504 1467.21 1509.13 1462.04 1504 1467.21 1498.88"/>
            <polygon class="cls-15" points="1439.66 1471.93 1444.48 1476.71 1439.66 1481.48 1434.84 1476.71 1439.66 1471.93"/>
            <polygon class="cls-15" points="1412.11 1444.99 1416.57 1449.41 1412.11 1453.84 1407.64 1449.41 1412.11 1444.99"/>
            <polygon class="cls-15" points="1384.55 1418.04 1388.67 1422.12 1384.55 1426.19 1380.44 1422.12 1384.55 1418.04"/>
            <polygon class="cls-15" points="1357 1391.1 1360.76 1394.82 1357 1398.55 1353.24 1394.82 1357 1391.1"/>
            <polygon class="cls-15" points="1329.45 1364.15 1332.85 1367.53 1329.45 1370.9 1326.04 1367.53 1329.45 1364.15"/>
            <polygon class="cls-15" points="1301.89 1337.21 1304.95 1340.23 1301.89 1343.26 1298.84 1340.23 1301.89 1337.21"/>
          </g>
          <g>
            <polygon class="cls-15" points="1582.65 1655.71 1589.6 1662.59 1582.65 1669.47 1575.71 1662.59 1582.65 1655.71"/>
            <polygon class="cls-15" points="1555.1 1628.77 1561.69 1635.3 1555.1 1641.83 1548.51 1635.3 1555.1 1628.77"/>
            <polygon class="cls-15" points="1527.55 1601.82 1533.78 1608 1527.55 1614.18 1521.31 1608 1527.55 1601.82"/>
            <polygon class="cls-15" points="1499.99 1574.88 1505.88 1580.71 1499.99 1586.54 1494.11 1580.71 1499.99 1574.88"/>
            <polygon class="cls-15" points="1472.44 1547.93 1477.97 1553.41 1472.44 1558.89 1466.91 1553.41 1472.44 1547.93"/>
            <polygon class="cls-15" points="1444.89 1520.99 1450.06 1526.12 1444.89 1531.24 1439.71 1526.12 1444.89 1520.99"/>
            <polygon class="cls-15" points="1417.33 1494.05 1422.16 1498.82 1417.33 1503.6 1412.51 1498.82 1417.33 1494.05"/>
            <polygon class="cls-15" points="1389.78 1467.1 1394.25 1471.53 1389.78 1475.95 1385.31 1471.53 1389.78 1467.1"/>
            <polygon class="cls-15" points="1362.23 1440.16 1366.34 1444.23 1362.23 1448.31 1358.11 1444.23 1362.23 1440.16"/>
            <polygon class="cls-15" points="1334.67 1413.21 1338.44 1416.94 1334.67 1420.66 1330.91 1416.94 1334.67 1413.21"/>
            <polygon class="cls-15" points="1307.12 1386.27 1310.53 1389.64 1307.12 1393.02 1303.71 1389.64 1307.12 1386.27"/>
            <polygon class="cls-15" points="1279.57 1359.32 1282.62 1362.35 1279.57 1365.37 1276.52 1362.35 1279.57 1359.32"/>
          </g>
          <g>
            <polygon class="cls-15" points="1560.33 1677.83 1567.27 1684.71 1560.33 1691.59 1553.38 1684.71 1560.33 1677.83"/>
            <polygon class="cls-15" points="1532.78 1650.88 1539.37 1657.41 1532.78 1663.94 1526.18 1657.41 1532.78 1650.88"/>
            <polygon class="cls-15" points="1505.22 1623.94 1511.46 1630.12 1505.22 1636.3 1498.99 1630.12 1505.22 1623.94"/>
            <polygon class="cls-15" points="1477.67 1596.99 1483.55 1602.82 1477.67 1608.65 1471.79 1602.82 1477.67 1596.99"/>
            <polygon class="cls-15" points="1450.12 1570.05 1455.65 1575.53 1450.12 1581.01 1444.59 1575.53 1450.12 1570.05"/>
            <polygon class="cls-15" points="1422.56 1543.11 1427.74 1548.23 1422.56 1553.36 1417.39 1548.23 1422.56 1543.11"/>
            <polygon class="cls-15" points="1395.01 1516.16 1399.83 1520.94 1395.01 1525.71 1390.19 1520.94 1395.01 1516.16"/>
            <polygon class="cls-15" points="1367.46 1489.22 1371.93 1493.64 1367.46 1498.07 1362.99 1493.64 1367.46 1489.22"/>
            <polygon class="cls-15" points="1339.9 1462.27 1344.02 1466.35 1339.9 1470.42 1335.79 1466.35 1339.9 1462.27"/>
            <polygon class="cls-15" points="1312.35 1435.33 1316.11 1439.05 1312.35 1442.78 1308.59 1439.05 1312.35 1435.33"/>
            <polygon class="cls-15" points="1284.8 1408.38 1288.21 1411.76 1284.8 1415.13 1281.39 1411.76 1284.8 1408.38"/>
            <polygon class="cls-15" points="1257.24 1381.44 1260.3 1384.46 1257.24 1387.49 1254.19 1384.46 1257.24 1381.44"/>
          </g>
        </g>
        <path class="cls-5" d="M1434.09,382.44c-33,0-59.76,26.51-59.76,59.21s26.76,59.2,59.76,59.2,59.77-26.51,59.77-59.2S1467.1,382.44,1434.09,382.44Zm0,86.89a27.69,27.69,0,1,1,28-27.68A27.81,27.81,0,0,1,1434.09,469.33Z" transform="translate(617.9 523.37)"/>
        <g class="cls-16">
          <path class="cls-17" d="M879.69,64.09c-35.23,37-73.05,71.51-108.28,108.7" transform="translate(617.9 523.37)"/>
          <path class="cls-17" d="M895.8,64c-39.23,41.66-83.11,82.13-124.48,123.26" transform="translate(617.9 523.37)"/>
          <path class="cls-17" d="M910.71,64C864.13,110.12,817.23,156.59,771,202.4" transform="translate(617.9 523.37)"/>
          <path class="cls-17" d="M925.48,64.33Q849.34,139.76,771.14,217.2" transform="translate(617.9 523.37)"/>
          <path class="cls-17" d="M943.58,64.19c-56.75,54.93-114.25,110.38-172.27,167.48" transform="translate(617.9 523.37)"/>
          <path class="cls-17" d="M955.45,64.4C895.91,125.11,836.9,182.07,776.38,243.52c-1.52,1.5-4.54,1.5-5.34,3.56" transform="translate(617.9 523.37)"/>
          <path class="cls-17" d="M971.9,64.13c-36.66,38.5-76,73-115.33,111.94-28.75,30-57.5,55.46-85,85.38" transform="translate(617.9 523.37)"/>
          <path class="cls-17" d="M982.11,67.11c-69.56,70-142.19,137.44-210.8,209.31" transform="translate(617.9 523.37)"/>
          <path class="cls-17" d="M982,82C912.55,150.59,841.44,221,771.57,290.65" transform="translate(617.9 523.37)"/>
          <path class="cls-17" d="M989.59,90c-72.5,72.56-146.64,143-218,215.71" transform="translate(617.9 523.37)"/>
          <path class="cls-17" d="M1004.66,89.94C926.17,167.08,850.52,246.52,771,321.25" transform="translate(617.9 523.37)"/>
          <path class="cls-17" d="M1018.62,90.48,779.25,327.61" transform="translate(617.9 523.37)"/>
          <path class="cls-17" d="M1033.32,90.49C953.4,168.58,874.72,248,794.07,327.74" transform="translate(617.9 523.37)"/>
          <path class="cls-17" d="M1041.23,97.22C964,173.08,888.34,251,809,327.8" transform="translate(617.9 523.37)"/>
          <path class="cls-17" d="M1041.69,111.36c-73.16,72.21-142.76,147.15-217.77,216.43" transform="translate(617.9 523.37)"/>
          <path class="cls-17" d="M1041.13,127.58C973.07,194.06,906.5,261.51,839,327.72" transform="translate(617.9 523.37)"/>
          <path class="cls-17" d="M1041.57,141.3C979.12,203.05,917.09,266,854,327.59" transform="translate(617.9 523.37)"/>
          <path class="cls-17" d="M1041.41,156.41q-86.63,85.7-172.62,171.37" transform="translate(617.9 523.37)"/>
          <path class="cls-17" d="M1041.58,171.23C989.71,224,936.76,276.5,884,327.55" transform="translate(617.9 523.37)"/>
          <path class="cls-17" d="M1041.39,186.34C994.25,233,945.84,281,898.82,327.65" transform="translate(617.9 523.37)"/>
          <path class="cls-17" d="M1041,201.69q-63.32,62.75-127.3,126" transform="translate(617.9 523.37)"/>
          <path class="cls-17" d="M1041.46,215.58Q997.41,259,953.59,302.72q-12.51,12.51-25,25" transform="translate(617.9 523.37)"/>
          <path class="cls-17" d="M1041.35,232.18c-32,32.32-65.25,65.3-97.82,95.62" transform="translate(617.9 523.37)"/>
        </g>
        <ellipse class="cls-17" cx="1680.52" cy="816.05" rx="12.4" ry="12.28"/>
        <path class="cls-18" d="M11.3,635.27A12.33,12.33,0,0,1-1.1,647.55a12.33,12.33,0,0,1-12.4-12.28A12.34,12.34,0,0,1-1.1,623,12.34,12.34,0,0,1,11.3,635.27Z" transform="translate(617.9 523.37)"/>
      </g>
    </g>
  </g>
</svg>
